<!-- icon666.com - MILLIONS OF FREE VECTOR ICONS --><svg id="Layer_1" enable-background="new 0 0 512 512" viewBox="0 0 512 512" xmlns="http://www.w3.org/2000/svg"><g id="Layer_2_1_"><g id="Layer_1-2"><g id="_01.Russian_ruble"><path id="Icon" d="m230.1 293.8v24h66.5c4.2 0 6.1 1.9 6.1 5.7v27c0 3.8-1.9 5.7-6.1 5.7h-66.5v43.8c0 4.9-1.1 6.1-5.7 6.1h-58.9c-4.6 0-5.7-1.1-5.7-6.1v-43.8h-28.9c-4.2 0-6.1-1.9-6.1-5.7v-27c0-3.8 1.9-5.7 6.1-5.7h28.9v-38.4h-28.9c-4.2 0-6.1-1.9-6.1-5.7v-26.6c0-3.8 1.9-5.7 6.1-5.7h28.9v-125.5c0-3.4 1.9-4.9 5.7-5.3 37.3-3 74.5-4.6 111.4-4.6 41.8 0 70.7 6.8 86.3 20.2 16 13.3 24 38.8 24 76.1 0 38-6.1 60.5-24.3 74.1s-43 17.5-85.9 17.5h-46.9zm0-52.4h39.2c18.6 0 31.2-2.3 37.3-6.8 6.5-5 9.5-14.8 9.5-30.4 0-15.2-3-25.1-9.5-29.7-6.5-4.9-18.6-7.2-37.3-7.2h-39.2z"></path></g></g></g></svg>