<!-- icon666.com - MILLIONS OF FREE VECTOR ICONS --><svg version="1.1" id="Capa_1" xmlns="http://www.w3.org/2000/svg" xmlns:xlink="http://www.w3.org/1999/xlink" x="0px" y="0px" viewBox="0 0 328.36 328.36" style="enable-background:new 0 0 328.36 328.36;" xml:space="preserve"><g><g><path d="M115.276,185.98c-13.558-10.21-36.104-25.771-36.323-25.922c-0.069-0.048-0.14-0.097-0.206-0.147 c-2.891-2.178-6.326-3.33-9.932-3.33c-3.992,0-7.827,1.423-10.887,4.07c-0.052,0.04-0.104,0.084-0.153,0.13 c-0.021,0.02-0.043,0.039-0.064,0.06c-0.045,0.044-0.088,0.088-0.129,0.134c-1.019,1.027-5.074,5.488-4.849,11.227 c0.236,6.021,5.293,11.289,9.493,14.649c0.036,0.028,0.072,0.056,0.109,0.082l29.848,21.303c2.692,1.921,3.32,5.676,1.399,8.369 c-1.125,1.575-2.953,2.515-4.895,2.515c-1.25,0-2.452-0.386-3.477-1.117l-30.033-21.436c-0.081-0.058-0.161-0.118-0.235-0.177 c-9.192-7.283-13.974-15.356-14.21-23.998c-0.209-7.634,3.193-13.627,6.085-17.311c0.418-0.533,0.603-1.213,0.51-1.885 l-9.503-68.971c-1.29-9.355-9.367-16.41-18.788-16.41c-0.874,0-1.759,0.061-2.626,0.181C11.381,68.69,6.925,71.3,3.86,75.345 c-3.065,4.044-4.371,9.04-3.679,14.068l15,108.866c0.649,4.741,3.045,9.03,6.743,12.076l54.279,44.699 c1.4,1.152,2.196,2.855,2.186,4.669l-0.333,52.334c-0.004,0.666,0.257,1.306,0.726,1.778c0.471,0.472,1.108,0.738,1.774,0.738 h54.569c1.381,0,2.5-1.119,2.5-2.5v-76.887C137.626,202.807,127.268,195.009,115.276,185.98z"></path><path d="M324.501,75.345c-3.065-4.045-7.522-6.654-12.549-7.347c-0.87-0.12-1.755-0.181-2.628-0.181 c-9.421,0-17.498,7.055-18.788,16.41l-9.504,68.971c-0.092,0.671,0.093,1.352,0.511,1.885c2.892,3.684,6.294,9.677,6.085,17.311 c-0.236,8.641-5.018,16.715-14.206,23.995c-0.078,0.062-0.158,0.122-0.244,0.183l-30.03,21.432 c-1.023,0.73-2.226,1.117-3.478,1.117c-1.938,0-3.767-0.941-4.892-2.515c-1.921-2.693-1.293-6.448,1.399-8.37l29.848-21.302 c0.036-0.026,0.073-0.054,0.109-0.082c4.2-3.36,9.257-8.628,9.493-14.648c0.243-6.186-4.487-10.888-5.096-11.465 c-3.019-2.68-6.92-4.156-10.986-4.156c-3.605,0-7.041,1.151-9.932,3.329c-0.067,0.051-0.137,0.1-0.204,0.146 c-0.222,0.152-22.768,15.713-36.325,25.923c-11.992,9.029-22.35,16.828-22.35,49.207v76.887c0,1.381,1.119,2.5,2.5,2.5h54.569 c0.007,0,0.015,0,0.015,0c1.386,0,2.505-1.12,2.505-2.5c0-0.113-0.007-0.225-0.021-0.333l-0.331-52.016 c-0.011-1.815,0.785-3.518,2.186-4.671l54.28-44.699c3.696-3.045,6.091-7.333,6.742-12.071l15-108.87 C328.872,84.385,327.565,79.388,324.501,75.345z"></path></g><path d="M165.606,159.092c0.069-0.012,0.139-0.019,0.207-0.032c0.227-0.042,0.448-0.096,0.668-0.155 c0.026-0.007,0.053-0.013,0.079-0.02c0.245-0.069,0.486-0.15,0.722-0.24c0.003-0.001,0.005-0.002,0.005-0.002l0.014-0.005 c0.107-0.041,0.216-0.078,0.319-0.123l69.613-26.788c3.283-1.264,5.448-4.418,5.447-7.936l-0.025-73.756 c-0.001-2.8-1.381-5.419-3.689-7.004c-0.352-0.241-0.721-0.444-1.098-0.628c-0.258-0.133-0.523-0.255-0.798-0.364l-69.921-27.658 c-2.021-0.798-4.271-0.794-6.287,0.014l-69.55,27.857c-0.278,0.111-0.546,0.236-0.806,0.373c-0.383,0.186-0.76,0.391-1.115,0.636 c-2.304,1.585-3.68,4.202-3.681,6.999l-0.03,73.758c-0.001,3.528,2.177,6.69,5.474,7.947l70.056,26.689 c0.134,0.051,0.27,0.09,0.406,0.133c0.066,0.021,0.13,0.045,0.196,0.065c0.355,0.105,0.714,0.186,1.075,0.244 c0.07,0.012,0.143,0.02,0.214,0.029c0.377,0.051,0.755,0.085,1.134,0.085c0.011,0,0.021,0,0.031,0c0.074,0,0.146-0.009,0.22-0.011 c0.186-0.005,0.374-0.011,0.559-0.029C165.235,159.152,165.42,159.121,165.606,159.092z M164.042,31.435l46.73,18.485 l-46.658,17.935l-46.59-17.789L164.042,31.435z"></path></g></svg>