<!-- icon666.com - MILLIONS OF FREE VECTOR ICONS --><svg version="1.1" id="Capa_1" xmlns="http://www.w3.org/2000/svg" xmlns:xlink="http://www.w3.org/1999/xlink" x="0px" y="0px" viewBox="0 0 512 512" style="enable-background:new 0 0 512 512;" xml:space="preserve"><g><g><path d="M370.451,135.87c-9.414-8.973-19.882-16.848-31.19-23.432c2.393,14.18,0.063,29.239-7.672,42.636l-33.571,58.149 c0.255,0.251,0.508,0.504,0.759,0.759l58.149-33.572c7.834-4.522,13.45-11.875,15.815-20.701 C374.908,151.621,374.083,143.243,370.451,135.87z"></path></g></g><g><g><path d="M399.871,173.262c-5.174,13.989-14.929,25.614-27.945,33.129l-58.124,33.557c0.098,0.352,0.208,0.698,0.299,1.052h67.098 c18.104,0,32.949-14.197,34.001-32.042C411.476,196.377,406.307,184.411,399.871,173.262z"></path></g></g><g><g><path d="M381.199,271h-67.098c-0.091,0.354-0.202,0.7-0.299,1.052l58.124,33.558c15.679,9.052,35.638,4.18,45.47-10.752 c2.98-12.379,4.577-25.29,4.6-38.564C410.907,265.474,396.687,271,381.199,271z"></path></g></g><g><g><path d="M140.074,206.39c-15.679-9.052-35.638-4.179-45.47,10.752c-2.98,12.378-4.577,25.289-4.6,38.564 c11.089-9.18,25.309-14.706,40.797-14.706h67.098c0.091-0.354,0.202-0.7,0.299-1.052L140.074,206.39z"></path></g></g><g><g><path d="M294.858,94.604c-12.378-2.98-25.289-4.577-38.564-4.6c9.18,11.089,14.706,25.309,14.706,40.797v67.098 c0.354,0.091,0.7,0.202,1.052,0.299l33.558-58.124C314.663,124.394,309.789,104.436,294.858,94.604z"></path></g></g><g><g><path d="M197.899,271h-67.098c-18.104,0-32.949,14.197-34.001,32.042c3.724,12.581,8.893,24.548,15.329,35.697 c5.174-13.989,14.929-25.615,27.945-33.129l58.124-33.558C198.1,271.7,197.99,271.354,197.899,271z"></path></g></g><g><g><path d="M388.853,340.16c-10.864,0.001-21.863-2.76-31.927-8.57l-58.149-33.572c-0.251,0.255-0.504,0.508-0.759,0.759 l33.572,58.149c4.522,7.834,11.875,13.45,20.701,15.815c8.087,2.166,16.466,1.342,23.839-2.29 c8.974-9.416,16.85-19.885,23.435-31.195C396.035,339.852,392.452,340.16,388.853,340.16z"></path></g></g><g><g><path d="M180.41,155.074c-4.522-7.834-11.875-13.45-20.701-15.815c-8.087-2.167-16.466-1.343-23.839,2.289 c-8.974,9.415-16.849,19.883-23.433,31.191c14.181-2.393,29.24-0.063,42.637,7.671l58.149,33.572 c0.251-0.255,0.504-0.508,0.759-0.759L180.41,155.074z"></path></g></g><g><g><path d="M256,0C114.615,0,0,114.615,0,256s114.615,256,256,256s256-114.615,256-256S397.385,0,256,0z M256,452 c-108.075,0-196-87.925-196-196S147.925,60,256,60s196,87.925,196,196S364.075,452,256,452z"></path></g></g><g><g><path d="M208.959,96.8c-12.581,3.724-24.547,8.893-35.696,15.329c13.988,5.174,25.613,14.929,33.128,27.945l33.558,58.124 c0.351-0.098,0.698-0.208,1.052-0.299v-67.098C241.001,112.697,226.804,97.852,208.959,96.8z"></path></g></g><g><g><path d="M213.982,298.777c-0.255-0.251-0.508-0.504-0.759-0.759l-58.149,33.572c-7.834,4.522-13.45,11.875-15.815,20.701 c-2.167,8.088-1.342,16.466,2.29,23.839c9.414,8.973,19.882,16.848,31.19,23.432c-2.393-14.18-0.063-29.239,7.672-42.636 L213.982,298.777z"></path></g></g><g><g><path d="M241,381.199v-67.098c-0.354-0.092-0.7-0.202-1.052-0.299l-33.558,58.124c-9.053,15.68-4.179,35.638,10.752,45.47 c12.378,2.98,25.289,4.577,38.564,4.6C246.526,410.907,241,396.687,241,381.199z"></path></g></g><g><g><path d="M305.609,371.926l-33.558-58.124c-0.351,0.098-0.698,0.208-1.052,0.299v67.098c0,18.104,14.197,32.949,32.042,34.001 c12.581-3.724,24.547-8.893,35.696-15.329C324.749,394.697,313.124,384.942,305.609,371.926z"></path></g></g><g><g><path d="M256,226c-16.542,0-30,13.458-30,30s13.458,30,30,30s30-13.458,30-30S272.542,226,256,226z"></path></g></g></svg>