<!-- icon666.com - MILLIONS OF FREE VECTOR ICONS --><svg id="Layer_1" enable-background="new 0 0 68 68" viewBox="0 0 68 68" xmlns="http://www.w3.org/2000/svg"><g><path d="m50 1.62256h-32c-.41406 0-.75.33594-.75.75 0 .41455.33594.75.75.75h10.22974l-3.58472 3.58496c-1.43994 1.43994-1.43994 3.77002 0 5.20996l7.25 7.25c.53198.53223 1.18604.86426 1.87109 1.00342-.00269.02588-.01514.04834-.01514.0752v2.60449c-2.2998.36133-4.06494 2.35693-4.06494 4.75684 0 1.51807.72021 2.85791 1.82129 3.74121l-7.90698 8.07861h-.08521c-2.14014 0-3.87012 1.72998-3.87012 3.87012v19.2002c0 2.13965 1.72998 3.87988 3.87012 3.87988h21.96973c2.14014 0 3.87012-1.74023 3.87012-3.87988v-19.2002c0-2.14014-1.72998-3.87012-3.87012-3.87012h-.06812l-7.8667-8.12451c1.06909-.88379 1.76587-2.20313 1.76587-3.69531 0-.41455-.33594-.75-.75-.75s-.75.33545-.75.75c0 1.06982-.51807 2.01318-1.30737 2.61963l-1.40552-1.45117c-.14063-.14551-.33398-.22803-.53662-.22852-.00049 0-.00146 0-.00195 0-.20166 0-.39502.08105-.53613.22559l-1.47314 1.50488c-.82568-.60352-1.36914-1.57178-1.36914-2.67041 0-1.82813 1.4873-3.31494 3.31494-3.31494.41406 0 .75-.33594.75-.75v-3.29639c0-.02686-.0127-.0498-.01538-.07568.68457-.13916 1.33789-.47168 1.86938-1.00293l7.25-7.25c1.43994-1.43994 1.43994-3.77002 0-5.20996l-3.58472-3.58496h9.22974c.41406 0 .75-.33545.75-.75 0-.41407-.33594-.75001-.75-.75001zm-20.90332 59.89795h-4.82129c-.41406 0-.75-.33545-.75-.75s.33594-.75.75-.75h4.82129c.41406 0 .75.33545.75.75s-.33594.75-.75.75zm3.47803-3.37842h-8.29932c-.41406 0-.75-.33545-.75-.75 0-.41406.33594-.75.75-.75h8.29932c.41406 0 .75.33594.75.75 0 .41455-.33594.75-.75.75zm10.75464-18.71484h-3.55445v7.43994c0 1.62598-1.75903 2.66943-3.19995 1.84033l-2.07007-1.22021-2.07983 1.22021c-1.44092.8291-3.19995-.2168-3.19995-1.84033v-7.43994h-3.52539l7.15723-7.31299c.51514.18896 1.06421.30811 1.64404.30811.60889 0 1.18652-.12549 1.72339-.33252zm-8.76783-9.05469.47949.49512c-.17676.0293-.35498.05469-.54004.05469-.14893 0-.29102-.0249-.43457-.04395zm-.05664-16.0752c-2.13989 0-3.87988-1.72998-3.87988-3.87012 0-2.1499 1.73999-3.87988 3.87988-3.87988 2.14014 0 3.87012 1.72998 3.87012 3.87988 0 2.14014-1.72998 3.87012-3.87012 3.87012z"></path><path d="m30.72192 46.86572c0 .48535.5271.78809.94604.54297l2.51563-1.47168c.19604-.11475.43872-.11475.63477 0l2.51563 1.47168c.41895.24512.94604-.05762.94604-.54297v-7.4458h-7.55811z"></path></g></svg>